<svg width="72" height="72" viewBox="0 0 72 72" fill="none" xmlns="http://www.w3.org/2000/svg">
<rect x="0.5" y="0.5" width="71" height="71" rx="7.5" fill="#FFF2F5"/>
<path d="M37.25 49.75H29.75C27.7609 49.75 25.8532 48.9598 24.4467 47.5533C23.0402 46.1468 22.25 44.2391 22.25 42.25V29.75C22.25 27.7609 23.0402 25.8532 24.4467 24.4467C25.8532 23.0402 27.7609 22.25 29.75 22.25H42.25C44.2391 22.25 46.1468 23.0402 47.5533 24.4467C48.9598 25.8532 49.75 27.7609 49.75 29.75V37.25C48.5 41 41 48.5 37.25 49.75Z" stroke="#776F71" stroke-width="2" stroke-linecap="round" stroke-linejoin="round"/>
<path d="M37.25 49.75V44.75C37.25 42.7609 38.0402 40.8532 39.4467 39.4467C40.8532 38.0402 42.7609 37.25 44.75 37.25H49.75" stroke="#776F71" stroke-width="2" stroke-linecap="round" stroke-linejoin="round"/>
<rect x="0.5" y="0.5" width="71" height="71" rx="7.5" stroke="#776F71"/>
</svg>
