<svg width="24" height="24" viewBox="0 0 24 24" fill="none" xmlns="http://www.w3.org/2000/svg">
<path d="M12 0C5.37603 0 0 5.37603 0 12C0 18.624 5.37603 24 12 24C18.624 24 24 18.624 24 12C24 5.37603 18.624 0 12 0ZM3.39199 12C3.39199 7.232 7.26398 3.36001 12 3.36001C13.792 3.36001 15.488 3.90403 16.864 4.86399L4.89602 16.864C3.93601 15.488 3.39199 13.792 3.39199 12ZM12 20.608C10.208 20.608 8.51197 20.064 7.13601 19.104L19.104 7.13601C20.064 8.51202 20.608 10.208 20.608 12C20.608 16.768 16.768 20.608 12 20.608Z" fill="#C5292A"/>
</svg>
