<svg width="62" height="42" viewBox="0 0 62 42" fill="none" xmlns="http://www.w3.org/2000/svg">
<path d="M37.6305 24.8771C38.5843 25.1494 39.8151 24.8771 40.2766 23.6367L39.3228 23.3645C39.0459 23.9998 38.3997 24.151 37.9074 23.9998C37.4151 23.8485 36.9536 23.3947 37.0766 22.7292L36.1228 22.4569C35.7843 23.7275 36.6459 24.6048 37.6305 24.8771Z" fill="white"/>
<path d="M39.5689 19.2804L35.1689 19.4316L35.1997 20.1577L39.292 20.0064L39.3228 20.0367L40.7689 21.3073L41.2613 20.7627L39.5689 19.2804Z" fill="white"/>
<path d="M31.8767 25.1796V25.2401C31.969 27.9628 33.569 30.9276 35.846 32.5915C36.9844 33.4385 38.8306 34.3159 41.0152 33.7411H41.046L41.0767 33.7713C41.3229 34.0133 41.6306 34.1646 41.9998 34.2554L41.969 34.2251L42.1844 34.2856C42.246 33.9528 42.4921 32.9545 42.6152 32.3494L42.6767 32.0469C42.646 32.0469 42.646 32.0469 42.6152 32.0469C42.1229 32.0469 41.5075 32.2889 41.1998 32.5915L41.1383 32.652L41.0767 32.5612C40.7383 32.0469 39.969 31.5629 39.2306 31.6839L39.1075 31.7141V31.6839C37.2613 31.8352 35.6921 31.1999 34.4613 29.8082C32.4921 27.5998 31.8152 23.788 32.2152 21.035C31.969 22.0031 31.7844 23.0619 31.8767 25.1796Z" fill="white"/>
<path d="M3.477 36.2218C4.52315 36.6151 5.60007 37.0386 6.64623 37.4319C6.83084 37.4924 7.01546 37.5831 7.20008 37.6134C7.84623 37.7344 8.24623 37.4319 8.21546 36.7966C8.15392 35.9495 8.06161 35.1024 7.84623 34.2856C7.69238 33.7713 7.69238 33.2268 7.44623 32.7125C7.72315 32.7125 7.75392 32.8637 7.78469 32.9848C8.03084 34.0436 8.49238 35.0419 8.677 36.131C8.73854 36.4638 8.92315 36.6756 9.20008 36.8268C9.81546 37.1899 10.4308 37.4319 11.1693 37.2806C11.6001 37.1899 12.0308 37.1899 12.4924 37.2504C12.8924 37.2806 13.2616 37.2504 13.6308 37.1596C14.0001 37.0688 14.4308 36.7966 14.3385 37.5529C14.3078 37.7344 14.5539 37.7647 14.7078 37.7949C15.3232 37.8554 15.7539 38.1882 16.2462 38.5512C16.9539 39.0655 17.7232 39.489 18.5232 39.8521L19.0462 39.9731L25.7232 28.3864C25.6924 28.3561 25.6616 28.3561 25.6308 28.3561C23.9078 27.509 22.0616 26.783 20.3078 26.0872C19.6924 25.8452 19.0462 25.6031 18.4308 25.3309C17.9693 25.1493 17.6616 25.2401 17.3847 25.6031C17.0462 26.0569 16.6462 26.541 16.2462 27.025C16.0616 27.267 15.8462 27.509 15.6308 27.7511L15.5385 27.8721L15.5078 27.7208C15.3847 27.2368 15.6001 27.025 15.7539 26.8435C17.077 25.4216 16.8001 23.8787 16.3078 22.4266C15.8155 21.0048 15.4155 19.5526 15.0155 18.1308C14.8616 17.5862 14.7078 17.0417 14.5539 16.4669C14.5232 16.3156 14.5232 16.1643 14.5232 16.0131V15.9526C14.5232 15.4988 14.4001 15.166 14.1847 14.9542C13.9693 14.7425 13.6308 14.6517 13.1693 14.682C13.0462 14.682 12.9232 14.7122 12.8001 14.7425L12.7078 14.7727L8.61546 15.8013L1.69238 35.6167C2.277 35.8285 2.89238 36.01 3.477 36.2218Z" fill="white"/>
<path d="M7.13846 38.642C7.01539 38.4302 6.76923 38.2789 6.36923 38.1579C4.86154 37.5831 3.35385 37.0688 1.87692 36.494C1.72308 36.4335 1.6 36.373 1.44615 36.3125L0 40.3966H4.73846C5.38462 39.9428 6.27692 39.2773 7.13846 38.642Z" fill="white"/>
<path d="M16.7383 19.3409C16.8614 19.7341 16.9537 20.1577 17.046 20.551C17.1998 21.2468 17.3844 21.9426 17.6306 22.6081C17.8152 23.0922 18.0921 23.4855 18.6152 23.909C19.846 24.9376 21.3229 25.5426 22.7383 26.1477C22.9844 26.2384 23.2306 26.3594 23.4767 26.4502L21.846 21.3678L21.8767 21.3375L23.9075 18.4938L23.9691 18.524L27.7844 19.7644L30.7075 17.9795L31.2921 15.1055L35.0767 11.8987H35.1075C36.6768 11.929 39.9998 13.1391 42.6768 14.1374C44.1229 14.682 45.3844 15.1358 46.1844 15.3475H46.2152V15.3778L47.2306 18.7963L47.0152 22.5174L46.8614 22.2754L44.7998 22.4266L44.8614 23.1527L46.4614 23.0317L46.4921 23.0619L46.9537 23.788L47.1691 23.667L46.3075 25.3309L45.8768 25.2098C45.5998 25.7241 45.046 25.8149 44.646 25.6939C44.2152 25.5729 43.846 25.1796 43.9075 24.635L43.046 24.393C42.9229 24.9981 43.1691 25.6636 43.6614 26.1174C44.1844 26.6015 44.9229 26.7527 45.5383 26.5107L45.7229 26.4502L44.4306 28.9309L44.646 30.8368L42.9537 32.0167C44.3075 32.3192 45.7229 31.9259 47.0152 30.9578C48.5537 29.778 49.5998 27.8721 49.5691 26.3594V25.9662L49.7229 26.3292C50.3075 27.6603 49.5998 29.7477 47.9383 31.6839C46.5844 33.257 44.3075 34.9512 42.3383 34.5579C42.2768 34.9512 41.4767 36.0403 39.5075 38.4302C39.1383 38.884 38.7998 39.2773 38.7691 39.3378L38.7383 39.3983H38.6767L34.9229 38.9445L34.1537 39.4285L33.2921 42H50.1537L53.9383 41.4555C54.0921 41.3647 54.246 41.2739 54.4306 41.1832C55.1998 40.7596 55.8768 40.2151 56.4614 39.5193C57.0152 38.884 57.4768 37.8252 58.2768 39.3378C58.4921 39.7311 58.9537 39.4588 59.2921 39.3075C60.1229 38.884 61.0152 38.763 61.9075 38.763L61.1691 26.7527C61.0768 26.8132 61.0152 26.904 60.9229 26.9645L60.646 27.1763C60.2152 27.509 59.8768 28.1443 59.8152 28.6284C59.7844 28.9309 59.7537 29.2032 59.7229 29.4755L59.6921 29.7175C59.6921 29.8385 59.6614 29.9292 59.6614 30.0502C59.6306 30.2318 59.6614 30.3528 59.7229 30.504C59.7537 30.5948 59.7844 30.6856 59.8152 30.7763C59.9075 31.1091 59.7844 31.2906 59.6921 31.4116C59.6614 31.4721 59.5075 31.6234 59.2306 31.6234V31.6536C59.0768 31.9562 58.8921 32.3192 58.646 32.6822C58.5537 32.8032 58.4921 32.9545 58.4306 33.136C58.3691 33.3175 58.3075 33.4385 58.246 33.5595C58.4921 33.7713 58.4614 34.0133 58.4306 34.1646L58.3998 34.3159L58.246 34.4369C57.9998 34.5579 57.7844 34.5276 57.5998 34.4066C57.1691 34.7696 56.6768 35.1024 56.0921 35.4655C55.9075 35.5562 55.7537 35.7075 55.5998 35.8285L55.3229 36.0402C55.1998 36.131 55.046 36.252 54.8306 36.2823C54.7075 36.3125 54.5844 36.3125 54.4614 36.252C54.3691 36.2218 54.2768 36.131 54.2152 36.0402C54.0614 35.8285 54.0921 35.5562 54.246 35.3444C54.3075 35.2839 54.3691 35.1932 54.4921 35.1327C54.8614 34.9209 55.1998 34.6789 55.5998 34.4066C55.9075 34.1948 56.1537 34.0133 56.3998 33.8621C56.6768 33.6806 56.8921 33.4385 57.0152 33.136C57.2614 32.5612 57.5998 31.9864 57.8768 31.5024L58.0306 31.2301C58.1229 31.0486 58.1844 30.8671 58.1844 30.6553C58.1844 30.3528 58.2152 30.0502 58.246 29.7477C58.2768 29.5662 58.2768 29.3544 58.2768 29.1729V28.9612C58.2768 28.7494 58.3075 28.4771 58.3691 28.2048C58.1229 28.1443 57.8152 28.0536 57.5383 28.0233C56.7998 27.9326 56.1537 27.63 55.6306 27.3275C55.2306 27.1158 54.7998 26.783 54.646 26.1174C54.6152 25.9359 54.4921 25.6939 54.3998 25.5124L54.3691 25.4519C54.3383 25.3611 54.2768 25.2704 54.246 25.1493L53.8768 24.2418L54.8306 24.5443C55.1998 24.6653 55.3229 24.9376 55.3844 25.0586C55.5691 25.4519 55.7229 25.7846 55.846 26.1174C55.846 26.1477 55.8768 26.1779 55.9691 26.2082C56.7075 26.6317 57.4152 26.8737 58.1537 26.9342C58.2768 26.9342 58.3691 26.9645 58.4921 27.025C58.646 27.0855 58.7075 27.0855 58.8921 26.9342C59.1075 26.7527 59.3229 26.5712 59.5383 26.3897L59.9998 25.9964C60.1229 25.8754 60.246 25.7846 60.3691 25.6636L60.6768 25.3914L56.9229 18.8568L53.7537 20.0669L53.7229 19.9762L51.846 8.51045L42.646 2.88348C42.7998 3.7608 42.8921 4.66838 42.9229 5.42469V5.4852C42.9844 6.36252 43.046 7.2701 43.2306 8.14742C43.2614 8.26843 43.3229 8.60121 43.046 8.90373L42.9229 9.02474L42.7383 8.99449C42.1537 8.93399 42.1229 8.44995 42.0921 8.26843C42.0306 7.9054 41.9998 7.60288 41.9383 7.30035C41.7844 6.33227 41.5691 5.21293 41.5998 4.09358C41.5998 3.15575 41.2614 2.61121 40.4614 2.33894C39.9998 2.15742 39.6306 1.88515 39.3844 1.49186C39.1691 1.15909 38.8306 0.886814 38.4614 0.644793C38.246 0.463278 37.9998 0.312016 37.7844 0.100248C37.6306 -0.0207619 37.3844 -0.0207621 37.0767 0.0397429H36.9844C36.3998 0.130501 35.7537 0.221258 35.1383 0.372521C34.246 0.614541 33.3844 0.856561 32.5844 1.09858L31.446 1.43136C30.6767 1.64313 30.0614 2.03641 29.5075 2.64146L29.4152 2.76247C29.1998 3.03474 28.9229 3.36752 28.2767 3.57929L27.1998 3.94232L28.2767 2.27843C28.5537 1.85489 28.7998 1.46161 29.046 1.09858L27.7537 1.3406C25.3229 1.82464 23.1998 2.21793 22.5844 2.33894L17.7537 9.1155C18.0614 9.29702 18.3998 9.29702 18.7691 9.14575C19.3844 8.87348 19.9998 8.63146 20.6152 8.51045H25.7537L25.2614 8.66171C23.5691 9.17601 22.1844 9.53904 20.9229 9.84156C20.2767 9.99283 19.6614 10.2046 19.046 10.4164C18.7075 10.5374 18.3691 10.6584 18.0306 10.7794C17.7844 10.8701 17.6306 11.0214 17.446 11.2332L17.2306 11.5357C16.7383 12.171 16.2152 12.8063 15.6614 13.4416C15.2614 13.8954 15.1998 14.3492 15.4152 14.8332C15.9075 15.8618 16.1537 16.9509 16.4306 18.0097C16.5229 18.4635 16.6152 18.9173 16.7383 19.3409Z" fill="white"/>
</svg>
