<svg width="24" height="24" viewBox="0 0 24 24" fill="none" xmlns="http://www.w3.org/2000/svg">
<path d="M21 13.5453V20.2001H17.142V13.991C17.142 12.4313 16.584 11.3668 15.1875 11.3668C14.1215 11.3668 13.4871 12.0842 13.208 12.7781C13.1063 13.0262 13.0801 13.3715 13.0801 13.7188V20.2001H9.22078C9.22078 20.2001 9.27276 9.68401 9.22078 8.59447H13.0797V10.2395C13.0719 10.2518 13.0617 10.2651 13.0543 10.277H13.0797V10.2395C13.5924 9.44986 14.508 8.32182 16.5574 8.32182C19.0965 8.32178 21 9.98055 21 13.5453ZM5.18381 3C3.86356 3 3 3.86598 3 5.00478C3 6.11876 3.83857 7.01102 5.13259 7.01102H5.15837C6.50419 7.01102 7.34117 6.11893 7.34117 5.00478C7.31581 3.86598 6.50419 3 5.18381 3ZM3.22921 20.2001H7.08702V8.59447H3.22921V20.2001Z" fill="#6B7FFF"/>
</svg>
