<svg width="56" height="56" viewBox="0 0 56 56" fill="none" xmlns="http://www.w3.org/2000/svg">
<rect width="56" height="56" fill="white"/>
<path d="M51 33.3633V50H41.355V34.4775C41.355 30.5781 39.96 27.9169 36.4688 27.9169C33.8038 27.9169 32.2178 29.7104 31.5201 31.4452C31.2656 32.0654 31.2002 32.9287 31.2002 33.7968V50H21.552C21.552 50 21.6819 23.71 21.552 20.9861H31.1992V25.0987C31.1796 25.1295 31.1542 25.1627 31.1358 25.1925H31.1992V25.0987C32.4809 23.1246 34.77 20.3045 39.8936 20.3045C46.2413 20.3044 51 24.4513 51 33.3633ZM11.4595 7C8.15889 7 6 9.16495 6 12.0119C6 14.7969 8.09643 17.0275 11.3315 17.0275H11.3959C14.7605 17.0275 16.8529 14.7973 16.8529 12.0119C16.7895 9.16495 14.7605 7 11.4595 7ZM6.57302 50H16.2176V20.9861H6.57302V50Z" fill="#6B7FFF"/>
</svg>
