<svg width="57" height="56" viewBox="0 0 57 56" fill="none" xmlns="http://www.w3.org/2000/svg">
<rect x="0.5" width="56" height="56" fill="white"/>
<path fill-rule="evenodd" clip-rule="evenodd" d="M50.5 14.2615C48.8812 14.9844 47.1413 15.4728 45.3155 15.6925C47.1791 14.5678 48.6106 12.7868 49.2845 10.6645C47.5401 11.7061 45.6083 12.4623 43.552 12.8699C41.9055 11.1035 39.5595 10 36.963 10C31.9779 10 27.9358 14.069 27.9358 19.088C27.9358 19.8003 28.0157 20.494 28.1695 21.1591C20.6671 20.7802 14.0156 17.1619 9.56348 11.6634C8.78645 13.0056 8.34117 14.5667 8.34117 16.2323C8.34117 19.3854 9.93484 22.1672 12.357 23.7969C10.8771 23.7497 9.48539 23.3408 8.26835 22.6602C8.26747 22.6981 8.26747 22.7362 8.26747 22.7745C8.26747 27.1777 11.3791 30.8509 15.5087 31.6859C14.7513 31.8937 13.9538 32.0047 13.1303 32.0047C12.5484 32.0047 11.983 31.9475 11.4317 31.8416C12.5808 35.4522 15.9142 38.0799 19.8645 38.153C16.775 40.5908 12.8828 42.0435 8.65335 42.0435C7.92471 42.0435 7.2062 42.0005 6.5 41.9164C10.495 44.4952 15.2401 46 20.3377 46C36.9417 46 46.0215 32.1515 46.0215 20.1416C46.0215 19.7476 46.0127 19.3558 45.9953 18.9657C47.7595 17.6846 49.2898 16.0839 50.5 14.2615Z" fill="#6B7FFF"/>
</svg>
