<svg width="24" height="24" viewBox="0 0 24 24" fill="none" xmlns="http://www.w3.org/2000/svg">
<path fill-rule="evenodd" clip-rule="evenodd" d="M22 5.92907C21.2642 6.25633 20.4733 6.47741 19.6434 6.57687C20.4905 6.06773 21.1412 5.26151 21.4475 4.30079C20.6546 4.77233 19.7765 5.11463 18.8418 5.29911C18.0934 4.49951 17.027 4 15.8468 4C13.5808 4 11.7436 5.84194 11.7436 8.1139C11.7436 8.43635 11.7799 8.75038 11.8498 9.05147C8.43957 8.87992 5.41618 7.24201 3.39249 4.75298C3.03929 5.36057 2.8369 6.06723 2.8369 6.82121C2.8369 8.24856 3.56129 9.50776 4.66229 10.2455C3.98959 10.2241 3.35699 10.0391 2.8038 9.73095C2.8034 9.7481 2.8034 9.76534 2.8034 9.78269C2.8034 11.7759 4.21779 13.4387 6.09488 13.8167C5.75058 13.9107 5.38808 13.961 5.01378 13.961C4.74929 13.961 4.49229 13.9351 4.24169 13.8872C4.76399 15.5216 6.27918 16.7111 8.07477 16.7442C6.67048 17.8477 4.90129 18.5053 2.9788 18.5053C2.6476 18.5053 2.321 18.4858 2 18.4477C3.81589 19.6151 5.97278 20.2963 8.28987 20.2963C15.8371 20.2963 19.9643 14.0274 19.9643 8.59086C19.9643 8.41249 19.9603 8.23512 19.9524 8.05856C20.7543 7.47864 21.4499 6.75403 22 5.92907V5.92907Z" fill="#6B7FFF"/>
</svg>
