<svg width="57" height="56" viewBox="0 0 57 56" fill="none" xmlns="http://www.w3.org/2000/svg">
<rect x="0.5" width="56" height="56" fill="white"/>
<path fill-rule="evenodd" clip-rule="evenodd" d="M45.6881 13.9176C47.5233 14.4119 48.9705 15.8587 49.4644 17.6942C50.3824 21.0469 50.3471 28.0353 50.3471 28.0353C50.3471 28.0353 50.3471 34.9881 49.4648 38.3411C48.9705 40.1763 47.5236 41.6234 45.6881 42.1174C42.3351 43 28.9235 43 28.9235 43C28.9235 43 15.5469 43 12.1589 42.0824C10.3234 41.5881 8.87656 40.141 8.3823 38.3058C7.5 34.9881 7.5 28 7.5 28C7.5 28 7.5 21.0469 8.3823 17.6942C8.87624 15.859 10.3587 14.3766 12.1586 13.8826C15.5116 13 28.9232 13 28.9232 13C28.9232 13 42.3351 13 45.6881 13.9176ZM35.8059 27.9997L24.6531 34.4233V21.5762L35.8059 27.9997Z" fill="#6B7FFF"/>
</svg>
