<svg width="24" height="24" viewBox="0 0 24 24" fill="none" xmlns="http://www.w3.org/2000/svg">
<path fill-rule="evenodd" clip-rule="evenodd" d="M19.0427 6.38548C19.8137 6.59312 20.4216 7.20094 20.6291 7.97204C21.0148 9.38048 20.9999 12.3163 20.9999 12.3163C20.9999 12.3163 20.9999 15.2371 20.6293 16.6457C20.4216 17.4167 19.8138 18.0246 19.0427 18.2321C17.6341 18.6029 12 18.6029 12 18.6029C12 18.6029 6.38048 18.6029 4.95721 18.2174C4.18611 18.0098 3.57829 17.4018 3.37065 16.6309C3 15.2371 3 12.3015 3 12.3015C3 12.3015 3 9.38048 3.37065 7.97204C3.57815 7.20108 4.20094 6.57829 4.95707 6.37079C6.36565 6 11.9998 6 11.9998 6C11.9998 6 17.6341 6 19.0427 6.38548ZM14.8911 12.3014L10.2059 14.9999V9.60288L14.8911 12.3014Z" fill="#6B7FFF"/>
</svg>
