<svg width="123" height="24" viewBox="0 0 123 24" fill="none" xmlns="http://www.w3.org/2000/svg">
<path d="M8.82971 23.9259C7.20461 23.9259 5.71494 23.5036 4.3336 22.6874C2.95227 21.8711 1.89595 20.717 1.13757 19.3096C0.37919 17.8741 0 16.326 0 14.6934C0 13.0045 0.406275 11.4564 1.19174 10.0209C1.97721 8.58535 3.06061 7.48758 4.41486 6.6713C5.76911 5.85502 7.25878 5.4328 8.8568 5.4328C10.6986 5.4328 12.3508 5.96761 13.8134 7.03722C15.2489 8.10683 16.3052 9.51422 16.9552 11.2594L13.5154 12.2164C13.0821 11.2312 12.4591 10.4431 11.6466 9.85199C10.834 9.26089 9.88603 8.95127 8.8568 8.95127C7.85465 8.95127 6.96085 9.2046 6.1483 9.7394C5.30866 10.2461 4.65862 10.9498 4.19818 11.8223C3.71065 12.6949 3.46688 13.6519 3.46688 14.6934C3.46688 15.7349 3.71065 16.6919 4.17109 17.5645C4.65862 18.4371 5.30866 19.1407 6.1483 19.6474C6.96085 20.1541 7.88174 20.4074 8.8568 20.4074C9.91311 20.4074 10.834 20.0978 11.6466 19.5067C12.4591 18.9156 13.0821 18.1274 13.5154 17.1704L16.9552 18.1556C16.2781 19.8726 15.2218 21.2518 13.7592 22.3214C12.2966 23.3911 10.6715 23.9259 8.82971 23.9259Z" fill="#22071F"/>
<path d="M27.0033 23.9259C25.3782 23.9259 23.8885 23.5036 22.5343 22.6874C21.18 21.8711 20.1237 20.717 19.3382 19.3096C18.5528 17.8741 18.1736 16.326 18.1736 14.6934C18.1736 13.0045 18.5799 11.4564 19.3653 10.0209C20.1508 8.58535 21.2342 7.48758 22.5884 6.6713C23.9427 5.85502 25.4324 5.4328 27.0304 5.4328C28.4659 5.4328 29.7931 5.77057 31.039 6.44612C32.2849 7.12166 33.287 8.05054 34.0996 9.2046C34.9121 10.3587 35.4267 11.6534 35.6705 13.1171C35.8872 14.1304 35.8872 15.1438 35.6976 16.1289H21.8301C21.9926 17.0297 22.2905 17.8178 22.778 18.4652C23.2656 19.1126 23.8614 19.6193 24.5927 19.957C25.324 20.323 26.1095 20.4918 26.9762 20.4918C27.8971 20.4918 28.7638 20.2948 29.6305 19.9007C30.4973 19.5067 31.2015 18.9719 31.7703 18.2963L35.0475 19.1689C34.3704 20.6044 33.287 21.7585 31.7703 22.6311C30.2806 23.4755 28.6826 23.9259 27.0033 23.9259ZM32.0411 13.1453C31.8786 12.3853 31.5807 11.6816 31.1202 11.0061C30.6598 10.3587 30.0639 9.82385 29.3597 9.45793C28.6555 9.06386 27.87 8.89497 26.9762 8.89497C26.0824 8.89497 25.2699 9.09201 24.5656 9.45793C23.8614 9.82385 23.2385 10.3587 22.778 11.0061C22.2905 11.6534 21.9926 12.3853 21.8301 13.1453H32.0411Z" fill="#22071F"/>
<path d="M38.0007 0H41.7385V23.6441H38.0007V0V0Z" fill="#22071F"/>
<path d="M52.7897 23.9255C51.1646 23.9255 49.6749 23.5033 48.3206 22.687C46.9664 21.8708 45.9101 20.7167 45.1246 19.3093C44.3392 17.9019 43.96 16.3538 43.96 14.7212C43.96 13.0324 44.3662 11.4842 45.1517 10.0487C45.9372 8.61318 47.0206 7.51542 48.3748 6.69913C49.7291 5.88285 51.2187 5.46063 52.8168 5.46063C54.2523 5.46063 55.5794 5.7984 56.8253 6.47395C58.0713 7.1495 59.0734 8.07837 59.886 9.23243C60.6985 10.3865 61.2131 11.6813 61.4569 13.145C61.6736 14.1583 61.6736 15.1716 61.484 16.1568H47.6435C47.806 17.0575 48.104 17.8456 48.5915 18.493C49.079 19.1404 49.6749 19.6471 50.4062 19.9849C51.1375 20.3508 51.923 20.5197 52.7897 20.5197C53.7106 20.5197 54.5773 20.3226 55.444 19.9286C56.3107 19.5345 57.0149 18.9997 57.5837 18.3241L60.861 19.1967C60.1839 20.6323 59.1005 21.7863 57.5837 22.6589C56.0399 23.4752 54.4419 23.9255 52.7897 23.9255ZM57.8275 13.145C57.665 12.385 57.367 11.6813 56.9066 11.0057C56.4462 10.3583 55.8503 9.82353 55.1461 9.45761C54.4419 9.06354 53.6564 8.89466 52.7626 8.89466C51.8688 8.89466 51.0562 9.09169 50.352 9.45761C49.6478 9.82353 49.0249 10.3583 48.5644 11.0057C48.104 11.6531 47.7789 12.3568 47.6435 13.145H57.8275Z" fill="#22071F"/>
<path d="M63.3796 5.74172H67.0903V8.72538C67.6591 7.57133 68.4987 6.72689 69.6363 6.13579C70.7739 5.54469 72.1281 5.40395 73.7261 5.68543V9.85129C72.5886 9.48537 71.5322 9.45722 70.503 9.7387C69.4738 10.0202 68.6612 10.5831 68.0383 11.4557C67.4153 12.3283 67.0903 13.3698 67.0903 14.6083V23.6437H63.3796V5.74172Z" fill="#22071F"/>
<path d="M82.7444 23.9255C81.1735 23.9255 79.738 23.5033 78.4379 22.687C77.1378 21.8426 76.0815 20.7167 75.3231 19.3093C74.5647 17.9019 74.1584 16.3538 74.1584 14.7212C74.1584 13.0324 74.5376 11.4842 75.3231 10.0487C76.0815 8.64133 77.1378 7.51542 78.4379 6.69913C79.738 5.88285 81.1735 5.46063 82.7444 5.46063C83.882 5.46063 84.9383 5.71396 85.8863 6.19247C86.8342 6.67098 87.6197 7.34653 88.2698 8.16281V5.74211H92.0075V23.6441H88.2698V21.2515C87.6468 22.0959 86.8613 22.7433 85.8863 23.2219C84.9112 23.7004 83.9091 23.9255 82.7444 23.9255ZM83.0694 20.4071C84.0445 20.4071 84.9383 20.1537 85.7779 19.6189C86.6176 19.1123 87.2676 18.4086 87.7822 17.536C88.2698 16.6634 88.5406 15.7064 88.5406 14.6931C88.5406 13.6798 88.2968 12.7227 87.7822 11.8502C87.2947 10.9776 86.6176 10.2739 85.7779 9.73909C84.9383 9.20428 84.0445 8.95095 83.0694 8.95095C82.0673 8.95095 81.1464 9.20428 80.3338 9.73909C79.4942 10.2457 78.8442 10.9494 78.3566 11.822C77.8691 12.6946 77.6524 13.6516 77.6524 14.6931C77.6524 15.7346 77.8962 16.6916 78.3566 17.536C78.8171 18.3804 79.4942 19.0841 80.3068 19.6189C81.1464 20.1537 82.0673 20.4071 83.0694 20.4071Z" fill="#22071F"/>
<path d="M94.771 5.74172H98.4816V8.72538C99.0504 7.57133 99.8901 6.72689 101.028 6.13579C102.165 5.54469 103.519 5.40395 105.117 5.68543V9.85129C103.98 9.45722 102.924 9.42908 101.894 9.71055C100.865 9.99203 100.053 10.555 99.4296 11.4276C98.8067 12.3001 98.4816 13.3416 98.4816 14.5801V23.6437H94.771V5.74172Z" fill="#22071F"/>
<path d="M116.493 23.5037C114.732 24.0104 113.161 24.123 111.807 23.8696C110.426 23.6163 109.342 22.9689 108.584 21.9556C107.798 20.9423 107.419 19.5912 107.419 17.8742V1.46404L111.049 0.338135V5.7425H116.357V9.12023H111.049V17.846C111.049 18.5779 111.238 19.1408 111.644 19.5912C112.051 20.0415 112.647 20.2667 113.486 20.323C114.299 20.3793 115.301 20.1823 116.466 19.7601V23.5037H116.493Z" fill="#22071F"/>
<path d="M120.284 23.9254C119.607 23.9254 119.038 23.6721 118.551 23.1935C118.063 22.6869 117.82 22.0958 117.82 21.3639C117.82 20.6321 118.063 20.041 118.551 19.5343C119.038 19.0277 119.607 18.7744 120.284 18.7744C120.989 18.7744 121.557 19.0277 122.045 19.5343C122.532 20.041 122.776 20.6602 122.776 21.3639C122.776 22.0958 122.532 22.6869 122.045 23.1935C121.557 23.7002 120.989 23.9254 120.284 23.9254Z" fill="#22071F"/>
</svg>
