<svg width="272" height="42" viewBox="0 0 272 42" fill="none" xmlns="http://www.w3.org/2000/svg">
<path d="M267.477 7.36084V7.93564H266.246V11.2332H265.6V7.93564H264.369V7.36084H267.477Z" fill="#22071F"/>
<path d="M272 11.2332H271.354L271.139 9.38776C271.077 8.7222 271.108 8.32892 271.108 8.32892C271.108 8.32892 270.954 8.81296 270.677 9.35751L269.754 11.2332L268.831 9.35751C268.554 8.81296 268.4 8.32892 268.4 8.32892C268.4 8.32892 268.462 8.75246 268.369 9.38776L268.154 11.2332H267.508L267.939 7.36084H268.523L269.723 9.78104L270.923 7.36084H271.508L272 11.2332Z" fill="#22071F"/>
<path d="M97.2614 14.4702V34.8604H92.4614V32.0469C91.5383 32.9545 90.4614 33.741 89.1691 34.3158C87.8152 34.9209 86.246 35.2536 84.7075 35.3142C83.1383 35.3444 81.5691 35.0721 80.1537 34.5276C78.7075 33.983 77.4152 33.1662 76.3383 32.1679C74.1845 30.1712 73.0152 27.388 73.046 24.6653C73.0152 21.9425 74.2152 19.1896 76.3383 17.1626C77.4152 16.1643 78.7075 15.3475 80.1537 14.8029C81.5998 14.2584 83.1691 13.9861 84.7075 14.0164C86.246 14.0466 87.7845 14.3794 89.1691 15.0147C90.4306 15.5895 91.5383 16.3761 92.4614 17.2836V14.4702H97.2614V14.4702ZM92.4614 24.6653C92.4614 22.7896 91.4768 21.0047 89.9383 19.8854C89.1998 19.3106 88.3075 18.887 87.4152 18.645C86.5229 18.403 85.5998 18.282 84.7075 18.3122C82.8922 18.3727 81.1383 19.0383 79.8768 20.2181C78.5845 21.3677 77.8152 23.0014 77.8152 24.6653C77.8152 26.3292 78.5845 27.9628 79.8768 29.1124C81.1691 30.2922 82.8922 30.9578 84.7075 31.0183C85.6306 31.0485 86.5229 30.9275 87.4152 30.6855C88.3075 30.4435 89.1691 30.02 89.9383 29.4452C91.4768 28.3258 92.4614 26.5107 92.4614 24.6653Z" fill="#22071F"/>
<path d="M116.677 8.78271L121.446 6.302V14.5912H127.354V18.8871H121.446V27.2368C121.446 29.778 121.877 30.262 122.308 30.5645C123.2 31.1091 125.569 30.9578 127.323 30.7763V35.0722C126.4 35.1629 125.508 35.2234 124.615 35.2234C122.677 35.2234 120.923 34.9209 119.538 34.0436C116.984 32.4402 116.646 29.8082 116.646 27.2368V8.78271H116.677Z" fill="#22071F"/>
<path d="M146.492 28.4469L150.369 30.9578C148.154 33.6805 144.646 35.2839 140.954 35.2839C140.954 35.2839 140.954 35.2839 140.923 35.2839C134.461 35.2839 129.231 30.4738 129.261 24.6048C129.261 21.761 130.492 19.0988 132.677 17.1022C134.892 15.0752 137.815 13.9861 140.954 13.9861C140.954 13.9861 140.954 13.9861 140.984 13.9861C144.708 13.9861 148.215 15.65 150.431 18.403L146.523 20.8837C145.2 19.2198 143.2 18.282 140.984 18.282C139.169 18.282 137.446 18.9476 136.123 20.1274C134.8 21.3375 134.061 22.9409 134.061 24.635C134.061 28.1443 137.138 31.0183 140.954 31.0183C143.169 31.0183 145.169 30.0805 146.492 28.4469Z" fill="#22071F"/>
<path d="M176.339 14.4702V34.8604H171.569V32.0469C170.646 32.9545 169.539 33.741 168.277 34.3158C166.923 34.9209 165.354 35.2536 163.815 35.3142C162.277 35.3444 160.677 35.0721 159.262 34.5276C157.815 33.983 156.523 33.1662 155.446 32.1679C153.292 30.1712 152.123 27.388 152.154 24.6653C152.123 21.9425 153.323 19.1896 155.446 17.1626C156.523 16.1643 157.815 15.3475 159.262 14.8029C160.708 14.2584 162.277 13.9861 163.815 14.0164C165.354 14.0466 166.892 14.3794 168.277 15.0147C169.539 15.5895 170.646 16.3761 171.569 17.2836V14.4702H176.339V14.4702ZM171.539 24.6653C171.539 22.7896 170.554 21.0047 169.015 19.8854C168.277 19.3106 167.385 18.887 166.492 18.645C165.6 18.403 164.677 18.282 163.785 18.3122C161.969 18.3727 160.215 19.0383 158.923 20.2181C157.631 21.3677 156.862 23.0014 156.862 24.6653C156.862 26.3292 157.631 27.9628 158.923 29.1124C160.215 30.2922 161.939 30.9578 163.785 31.0183C164.708 31.0485 165.6 30.9275 166.492 30.6855C167.385 30.4435 168.246 30.02 169.015 29.4452C170.585 28.3258 171.569 26.5107 171.539 24.6653Z" fill="#22071F"/>
<path d="M200.307 14.4702L192.461 34.8604H186.8L178.954 14.4702H184.031L189.631 29.5359L195.261 14.4702H200.307Z" fill="#22071F"/>
<path d="M205.846 26.4199C206.769 29.0822 209.723 31.0183 213.231 31.0183C215.6 31.0183 217.754 30.141 219.2 28.6586L223.631 30.504C221.354 33.4385 217.477 35.2839 213.231 35.2839C206.338 35.2839 200.738 30.504 200.738 24.635C200.738 18.766 205.969 13.9861 212.431 13.9861C218.861 13.9861 224.123 18.766 224.123 24.635C224.123 25.2401 224.061 25.8149 223.938 26.3897H223.077H205.846V26.4199ZM219.077 22.9106C218.246 20.2484 215.6 18.3123 212.461 18.3123C209.323 18.3123 206.677 20.2484 205.846 22.9106H219.077Z" fill="#22071F"/>
<path d="M226.369 32.3796C226.369 30.7158 227.723 29.3846 229.415 29.3846C231.108 29.3846 232.461 30.7158 232.461 32.3796C232.461 34.0435 231.108 35.3746 229.415 35.3746C227.723 35.3746 226.369 34.0133 226.369 32.3796Z" fill="#22071F"/>
<path d="M234.984 9.297C234.984 7.63311 236.338 6.302 238.031 6.302C239.723 6.302 241.077 7.63311 241.077 9.297C241.077 10.9609 239.723 12.292 238.031 12.292C236.338 12.292 234.984 10.9609 234.984 9.297Z" fill="#22071F"/>
<path d="M240.43 14.4702H235.63V34.8604H240.43V14.4702Z" fill="#22071F"/>
<path d="M266.861 24.6653C266.861 30.5343 261.63 35.3142 255.169 35.3142C248.707 35.3142 243.477 30.5343 243.477 24.6653C243.477 18.7963 248.707 14.0164 255.169 14.0164C261.63 14.0164 266.861 18.7963 266.861 24.6653ZM262.092 24.6653C262.092 21.156 258.984 18.3123 255.2 18.3123C251.415 18.3123 248.307 21.156 248.307 24.6653C248.307 28.1746 251.415 31.0183 255.2 31.0183C258.984 31.0183 262.092 28.1746 262.092 24.6653Z" fill="#22071F"/>
<path d="M113.6 13.9256C113.2 13.8954 112.8 13.8349 112.43 13.8651C111.077 13.9256 109.661 14.2887 108.492 14.9845C107.6 15.4988 106.892 16.1946 106.338 16.9206V14.4702H101.538V34.8604H106.338V24.5443C106.369 24.3022 106.369 24.03 106.4 23.7879C106.461 22.8804 106.646 22.0333 107.015 21.2467C107.353 20.4904 107.877 19.7644 108.461 19.2803C109.077 18.766 109.723 18.4635 110.369 18.282C111.046 18.1005 111.692 18.1005 112.4 18.161C112.861 18.1912 113.2 18.3425 113.569 18.4938V13.9256H113.6Z" fill="#22071F"/>
<path d="M37.631 24.877C38.5848 25.1493 39.8156 24.8771 40.2771 23.6367L39.3233 23.3644C39.0464 23.9997 38.4002 24.151 37.9079 23.9997C37.4156 23.8485 36.9541 23.3947 37.0771 22.7291L36.1233 22.4568C35.7848 23.7275 36.6464 24.6048 37.631 24.877Z" fill="#22071F"/>
<path d="M39.5694 19.2803L35.1694 19.4316L35.2002 20.1577L39.2925 20.0064L39.3233 20.0366L40.7694 21.3073L41.2617 20.7627L39.5694 19.2803Z" fill="#22071F"/>
<path d="M31.8767 25.1796V25.2401C31.969 27.9629 33.569 30.9276 35.846 32.5915C36.9844 33.4386 38.8306 34.3159 41.0152 33.7411H41.046L41.0767 33.7713C41.3229 34.0134 41.6306 34.1646 41.9998 34.2554L41.969 34.2251L42.1844 34.2856C42.246 33.9529 42.4921 32.9545 42.6152 32.3495L42.6767 32.047C42.646 32.047 42.646 32.047 42.6152 32.047C42.1229 32.047 41.5075 32.289 41.1998 32.5915L41.1383 32.652L41.0767 32.5612C40.7383 32.047 39.969 31.5629 39.2306 31.6839L39.1075 31.7142V31.6839C37.2613 31.8352 35.6921 31.1999 34.4613 29.8083C32.4921 27.5998 31.8152 23.788 32.2152 21.035C31.969 22.0031 31.7844 23.062 31.8767 25.1796Z" fill="#22071F"/>
<path d="M3.477 36.2217C4.52315 36.615 5.60007 37.0386 6.64623 37.4318C6.83084 37.4924 7.01546 37.5831 7.20008 37.6134C7.84623 37.7344 8.24623 37.4318 8.21546 36.7965C8.15392 35.9495 8.06161 35.1024 7.84623 34.2856C7.69238 33.7713 7.69238 33.2267 7.44623 32.7124C7.72315 32.7124 7.75392 32.8637 7.78469 32.9847C8.03084 34.0436 8.49238 35.0419 8.677 36.131C8.73854 36.4638 8.92315 36.6755 9.20008 36.8268C9.81546 37.1898 10.4308 37.4318 11.1693 37.2806C11.6001 37.1898 12.0308 37.1898 12.4924 37.2503C12.8924 37.2806 13.2616 37.2503 13.6308 37.1596C14.0001 37.0688 14.4308 36.7965 14.3385 37.5529C14.3078 37.7344 14.5539 37.7646 14.7078 37.7949C15.3232 37.8554 15.7539 38.1882 16.2462 38.5512C16.9539 39.0655 17.7232 39.489 18.5232 39.852L19.0462 39.9731L25.7232 28.3863C25.6924 28.3561 25.6616 28.3561 25.6308 28.3561C23.9078 27.509 22.0616 26.783 20.3078 26.0871C19.6924 25.8451 19.0462 25.6031 18.4308 25.3308C17.9693 25.1493 17.6616 25.2401 17.3847 25.6031C17.0462 26.0569 16.6462 26.5409 16.2462 27.025C16.0616 27.267 15.8462 27.509 15.6308 27.751L15.5385 27.872L15.5078 27.7208C15.3847 27.2367 15.6001 27.025 15.7539 26.8435C17.077 25.4216 16.8001 23.8787 16.3078 22.4266C15.8155 21.0047 15.4155 19.5526 15.0155 18.1307C14.8616 17.5862 14.7078 17.0416 14.5539 16.4668C14.5232 16.3156 14.5232 16.1643 14.5232 16.0131V15.9525C14.5232 15.4988 14.4001 15.166 14.1847 14.9542C13.9693 14.7424 13.6308 14.6517 13.1693 14.6819C13.0462 14.6819 12.9232 14.7122 12.8001 14.7424L12.7078 14.7727L8.61546 15.8013L1.69238 35.6167C2.277 35.8285 2.89238 36.01 3.477 36.2217Z" fill="#22071F"/>
<path d="M7.13846 38.6419C7.01539 38.4302 6.76923 38.2789 6.36923 38.1579C4.86154 37.5831 3.35385 37.0688 1.87692 36.494C1.72308 36.4335 1.6 36.373 1.44615 36.3125L0 40.3966H4.73846C5.38462 39.9428 6.27692 39.2772 7.13846 38.6419Z" fill="#22071F"/>
<path d="M16.7383 19.3409C16.8614 19.7341 16.9537 20.1577 17.046 20.551C17.1998 21.2468 17.3844 21.9426 17.6306 22.6081C17.8152 23.0922 18.0921 23.4855 18.6152 23.909C19.846 24.9376 21.3229 25.5426 22.7383 26.1477C22.9844 26.2384 23.2306 26.3594 23.4767 26.4502L21.846 21.3678L21.8767 21.3375L23.9075 18.4938L23.9691 18.524L27.7844 19.7644L30.7075 17.9795L31.2921 15.1055L35.0767 11.8987H35.1075C36.6768 11.929 39.9998 13.1391 42.6768 14.1374C44.1229 14.682 45.3844 15.1358 46.1844 15.3475H46.2152V15.3778L47.2306 18.7963L47.0152 22.5174L46.8614 22.2754L44.7998 22.4266L44.8614 23.1527L46.4614 23.0317L46.4921 23.0619L46.9537 23.788L47.1691 23.667L46.3075 25.3309L45.8768 25.2098C45.5998 25.7241 45.046 25.8149 44.646 25.6939C44.2152 25.5729 43.846 25.1796 43.9075 24.635L43.046 24.393C42.9229 24.9981 43.1691 25.6636 43.6614 26.1174C44.1844 26.6015 44.9229 26.7527 45.5383 26.5107L45.7229 26.4502L44.4306 28.9309L44.646 30.8368L42.9537 32.0167C44.3075 32.3192 45.7229 31.9259 47.0152 30.9578C48.5537 29.778 49.5998 27.8721 49.5691 26.3594V25.9662L49.7229 26.3292C50.3075 27.6603 49.5998 29.7477 47.9383 31.6839C46.5844 33.257 44.3075 34.9512 42.3383 34.5579C42.2768 34.9512 41.4767 36.0403 39.5075 38.4302C39.1383 38.884 38.7998 39.2773 38.7691 39.3378L38.7383 39.3983H38.6767L34.9229 38.9445L34.1537 39.4285L33.2921 42H50.1537L53.9383 41.4555C54.0921 41.3647 54.246 41.2739 54.4306 41.1832C55.1998 40.7596 55.8768 40.2151 56.4614 39.5193C57.0152 38.884 57.4768 37.8252 58.2768 39.3378C58.4921 39.7311 58.9537 39.4588 59.2921 39.3075C60.1229 38.884 61.0152 38.763 61.9075 38.763L61.1691 26.7527C61.0768 26.8132 61.0152 26.904 60.9229 26.9645L60.646 27.1763C60.2152 27.509 59.8768 28.1443 59.8152 28.6284C59.7844 28.9309 59.7537 29.2032 59.7229 29.4755L59.6921 29.7175C59.6921 29.8385 59.6614 29.9292 59.6614 30.0502C59.6306 30.2318 59.6614 30.3528 59.7229 30.504C59.7537 30.5948 59.7844 30.6856 59.8152 30.7763C59.9075 31.1091 59.7844 31.2906 59.6921 31.4116C59.6614 31.4721 59.5075 31.6234 59.2306 31.6234V31.6536C59.0768 31.9562 58.8921 32.3192 58.646 32.6822C58.5537 32.8032 58.4921 32.9545 58.4306 33.136C58.3691 33.3175 58.3075 33.4385 58.246 33.5595C58.4921 33.7713 58.4614 34.0133 58.4306 34.1646L58.3998 34.3159L58.246 34.4369C57.9998 34.5579 57.7844 34.5276 57.5998 34.4066C57.1691 34.7696 56.6768 35.1024 56.0921 35.4655C55.9075 35.5562 55.7537 35.7075 55.5998 35.8285L55.3229 36.0402C55.1998 36.131 55.046 36.252 54.8306 36.2823C54.7075 36.3125 54.5844 36.3125 54.4614 36.252C54.3691 36.2218 54.2768 36.131 54.2152 36.0402C54.0614 35.8285 54.0921 35.5562 54.246 35.3444C54.3075 35.2839 54.3691 35.1932 54.4921 35.1327C54.8614 34.9209 55.1998 34.6789 55.5998 34.4066C55.9075 34.1948 56.1537 34.0133 56.3998 33.8621C56.6768 33.6806 56.8921 33.4385 57.0152 33.136C57.2614 32.5612 57.5998 31.9864 57.8768 31.5024L58.0306 31.2301C58.1229 31.0486 58.1844 30.8671 58.1844 30.6553C58.1844 30.3528 58.2152 30.0502 58.246 29.7477C58.2768 29.5662 58.2768 29.3544 58.2768 29.1729V28.9612C58.2768 28.7494 58.3075 28.4771 58.3691 28.2048C58.1229 28.1443 57.8152 28.0536 57.5383 28.0233C56.7998 27.9326 56.1537 27.63 55.6306 27.3275C55.2306 27.1158 54.7998 26.783 54.646 26.1174C54.6152 25.9359 54.4921 25.6939 54.3998 25.5124L54.3691 25.4519C54.3383 25.3611 54.2768 25.2704 54.246 25.1493L53.8768 24.2418L54.8306 24.5443C55.1998 24.6653 55.3229 24.9376 55.3844 25.0586C55.5691 25.4519 55.7229 25.7846 55.846 26.1174C55.846 26.1477 55.8768 26.1779 55.9691 26.2082C56.7075 26.6317 57.4152 26.8737 58.1537 26.9342C58.2768 26.9342 58.3691 26.9645 58.4921 27.025C58.646 27.0855 58.7075 27.0855 58.8921 26.9342C59.1075 26.7527 59.3229 26.5712 59.5383 26.3897L59.9998 25.9964C60.1229 25.8754 60.246 25.7846 60.3691 25.6636L60.6768 25.3914L56.9229 18.8568L53.7537 20.0669L53.7229 19.9762L51.846 8.51045L42.646 2.88348C42.7998 3.7608 42.8921 4.66838 42.9229 5.42469V5.4852C42.9844 6.36252 43.046 7.2701 43.2306 8.14742C43.2614 8.26843 43.3229 8.60121 43.046 8.90373L42.9229 9.02474L42.7383 8.99449C42.1537 8.93399 42.1229 8.44995 42.0921 8.26843C42.0306 7.9054 41.9998 7.60288 41.9383 7.30035C41.7844 6.33227 41.5691 5.21293 41.5998 4.09358C41.5998 3.15575 41.2614 2.61121 40.4614 2.33894C39.9998 2.15742 39.6306 1.88515 39.3844 1.49186C39.1691 1.15909 38.8306 0.886814 38.4614 0.644793C38.246 0.463278 37.9998 0.312016 37.7844 0.100248C37.6306 -0.0207619 37.3844 -0.0207621 37.0767 0.0397429H36.9844C36.3998 0.130501 35.7537 0.221258 35.1383 0.372521C34.246 0.614541 33.3844 0.856561 32.5844 1.09858L31.446 1.43136C30.6767 1.64313 30.0614 2.03641 29.5075 2.64146L29.4152 2.76247C29.1998 3.03474 28.9229 3.36752 28.2767 3.57929L27.1998 3.94232L28.2767 2.27843C28.5537 1.85489 28.7998 1.46161 29.046 1.09858L27.7537 1.3406C25.3229 1.82464 23.1998 2.21793 22.5844 2.33894L17.7537 9.1155C18.0614 9.29702 18.3998 9.29702 18.7691 9.14575C19.3844 8.87348 19.9998 8.63146 20.6152 8.51045H25.7537L25.2614 8.66171C23.5691 9.17601 22.1844 9.53904 20.9229 9.84156C20.2767 9.99283 19.6614 10.2046 19.046 10.4164C18.7075 10.5374 18.3691 10.6584 18.0306 10.7794C17.7844 10.8701 17.6306 11.0214 17.446 11.2332L17.2306 11.5357C16.7383 12.171 16.2152 12.8063 15.6614 13.4416C15.2614 13.8954 15.1998 14.3492 15.4152 14.8332C15.9075 15.8618 16.1537 16.9509 16.4306 18.0097C16.5229 18.4635 16.6152 18.9173 16.7383 19.3409Z" fill="#22071F"/>
</svg>
